<svg xmlns="http://www.w3.org/2000/svg" viewBox="0 0 520 520" role="img" aria-label="Фото лікаря (заглушка)">
  <defs>
    <linearGradient id="bg" x1="0" x2="1" y1="0" y2="1">
      <stop offset="0" stop-color="#7dd3fc" stop-opacity="0.35"/>
      <stop offset="1" stop-color="#a78bfa" stop-opacity="0.30"/>
    </linearGradient>
    <linearGradient id="skin" x1="0" x2="1">
      <stop offset="0" stop-color="#ffedd5"/>
      <stop offset="1" stop-color="#fed7aa"/>
    </linearGradient>
  </defs>

  <rect width="520" height="520" rx="36" fill="url(#bg)"/>
  <circle cx="260" cy="210" r="86" fill="url(#skin)" opacity="0.88"/>
  <path d="M150 410c18-64 64-106 110-106h0c46 0 92 42 110 106" fill="rgba(255,255,255,0.28)"/>
  <path d="M196 420c8-40 34-66 64-66s56 26 64 66" fill="rgba(15,23,42,0.10)"/>

  <path d="M180 312c24-26 50-40 80-40s56 14 80 40" fill="none" stroke="rgba(255,255,255,0.35)" stroke-width="14" stroke-linecap="round"/>
  <path d="M214 378h92c2 0 4 2 4 4v44c0 2-2 4-4 4h-92c-2 0-4-2-4-4v-44c0-2 2-4 4-4Z" fill="rgba(255,255,255,0.38)"/>

  <text x="50%" y="470" text-anchor="middle" font-family="ui-sans-serif, system-ui, -apple-system, Segoe UI, Roboto, Arial" font-size="16" fill="rgba(15,23,42,0.65)">
    Додайте ваше фото
  </text>
</svg>
