<svg xmlns="http://www.w3.org/2000/svg" viewBox="0 0 64 64" role="img" aria-label="Thyroid icon">
  <defs>
    <linearGradient id="g" x1="0" x2="1" y1="0" y2="1">
      <stop offset="0" stop-color="#7dd3fc"/>
      <stop offset="1" stop-color="#a78bfa"/>
    </linearGradient>
  </defs>
  <rect width="64" height="64" rx="18" fill="#0b0f19"/>
  <path d="M32 8c-6 0-11 5-11 11v5c0 2-1 4-3 6l-5 6c-2 3-3 6-3 10 0 9 7 16 16 16h12c9 0 16-7 16-16 0-4-1-7-3-10l-5-6c-2-2-3-4-3-6v-5c0-6-5-11-11-11Z" fill="url(#g)"/>
  <path d="M32 18c-2 0-4 2-4 4v7c0 2-1 4-2 5l-4 5c-1 2-2 4-2 7 0 6 5 11 11 11h2c6 0 11-5 11-11 0-3-1-5-2-7l-4-5c-1-1-2-3-2-5v-7c0-2-2-4-4-4Z" fill="rgba(255,255,255,0.22)"/>
</svg>
